# xmcd
#
# Track frame offsets: 
#        150
#        14877
#        24205
#        38648
#        51810
#        61758
#        73430
#        92620
#        106774
#        118991
#        127754
#        143017
#        151738
#
# Disc length: 2284 seconds
#
# Revision: 0
# Processed by: cddbd v1.5.2PL0 Copyright (c) Steve Scherf et al.
# Submitted via: ExactAudioCopyFreeDBPlugin 1.0
#
DISCID=a508ea0d
DTITLE=Various Artist - Records To Ruin Any Party Vol. 4
DYEAR=2014
DGENRE=Blues Trash
TTITLE0=The Future Primitives - Into The Primitive
TTITLE1=Die Zorros - Good Bye Baby
TTITLE2=The Juke Joint Pimps - King Roland's Prayer
TTITLE3=Hank Haint - Blackout
TTITLE4=The Monsters - Blow Um Mau Mau
TTITLE5=Roy And The Devil's Motorcycle - Six Pink Cadillac
TTITLE6=Becky Lee And Drunkfoot - Old Fashioned Man
TTITLE7=The Pussywarmers - La Nen La Bambele
TTITLE8=Heart Attack Alley - Too Hot Blues
TTITLE9=Mama Rosin together with Hipbone Slim And The Kneetremblers - 
TTITLE9=London Zydeco
TTITLE10=Delaney Davidson - Windy City
TTITLE11=The Goon Mat And Lord Benardo - What It's All About
TTITLE12=Menic - Waiting For Zero
EXTD=
EXTT0=
EXTT1=
EXTT2=
EXTT3=
EXTT4=
EXTT5=
EXTT6=
EXTT7=
EXTT8=
EXTT9=
EXTT10=
EXTT11=
EXTT12=
PLAYORDER=
